<svg xmlns="http://www.w3.org/2000/svg" xmlns:xlink="http://www.w3.org/1999/xlink" xml:space="preserve" width="512" height="512" viewBox="0 0 135.467 135.467"><defs><linearGradient id="a"><stop offset="0" style="stop-color:#8a5cff;stop-opacity:1"/><stop offset="1" style="stop-color:#f1329b;stop-opacity:1"/></linearGradient><linearGradient xlink:href="#a" id="b" x1="64.935" x2="131.29" y1="195.871" y2="195.871" gradientTransform="matrix(1.28976 0 0 1.45714 -45.264 -113.64)" gradientUnits="userSpaceOnUse"/></defs><path d="M27.503 112.31H162.97v135.467H27.503z" style="fill:url(#b);fill-opacity:1;stroke:none;stroke-width:1.45086" transform="translate(-27.503 -112.31)"/><path d="M98.768 143.204c-.996.003-1.998.043-2.904.122-6.993.602-14.073 3.249-21.221 7.932-7.72 5.059-15.539 12.59-22.53 21.704-1.794 2.337-3.793 5.174-5.01 7.107-.205.325-.259.429-.243.472.033.087 2.517 3.68 3.194 4.618 4.779 6.626 9.337 11.98 14.054 16.505 10.52 10.093 21.134 15.325 31.873 15.714 4.608.167 9.36-.616 13.97-2.301 9.148-3.344 18.177-10.328 26.462-20.47 3.466-4.243 6.932-9.285 9.315-13.55.272-.488.305-.56.277-.609l-.544-.933a130.678 130.678 0 0 0-5.388-8.51c-2.787-4.055-5.32-7.308-8.115-10.419-9.55-10.628-19.678-16.4-30.318-17.277a34.498 34.498 0 0 0-2.872-.105zm-1.62 11.775c1.18 0 1.69.025 2.713.126a26.622 26.622 0 0 1 14.41 6.005c4.592 3.822 7.686 9.049 8.74 14.768a24.725 24.725 0 0 1-1.717 14.54c-2.144 4.836-5.892 8.997-10.556 11.72-3.532 2.064-7.38 3.257-11.576 3.591-.346.028-.995.046-1.775.052-1.325.008-1.325.01-2.223-.055a26.65 26.65 0 0 1-15.002-5.954 26.315 26.315 0 0 1-4.997-5.468 24.803 24.803 0 0 1-4.241-12.373 24.709 24.709 0 0 1 3.138-13.687c2.16-3.834 5.332-7.094 9.162-9.413a26.774 26.774 0 0 1 11.212-3.727c1.024-.1 1.533-.125 2.713-.125z" style="fill:#fff;stroke-width:.0281103" transform="translate(-27.503 -112.31)"/><path d="M99.738 166.431c.028.194.053.387.074.582.07.667.07 2.113 0 2.781-.354 3.376-1.817 6.397-4.253 8.781-3 2.937-7.108 4.459-11.354 4.208h-.001a15.31 15.31 0 0 1-1.324-.138 14.243 14.243 0 0 0 2.683 6.498c2.62 3.497 6.643 5.65 11.044 5.91 4.247.251 8.353-1.27 11.354-4.206 2.437-2.385 3.9-5.405 4.254-8.781.07-.669.07-2.114 0-2.782a14.306 14.306 0 0 0-4.794-9.291 14.973 14.973 0 0 0-7.654-3.558l-.029-.004z" style="fill:#fff;stroke-width:.028089" transform="translate(-27.503 -112.31)"/></svg>